<svg xmlns="http://www.w3.org/2000/svg" viewBox="0 0 1200 630">
  <rect width="1200" height="630" fill="#0e1b33"/>
  <g fill="none" stroke="#1e2f52" stroke-width="1">
    <path d="M0 0h1200M0 42h1200M0 84h1200M0 126h1200M0 168h1200M0 210h1200M0 252h1200M0 294h1200M0 336h1200M0 378h1200M0 420h1200M0 462h1200M0 504h1200M0 546h1200M0 588h1200"/>
  </g>
  <g>
    <circle cx="90" cy="530" r="16" fill="none" stroke="#5b6c8f" stroke-width="3"/>
    <circle cx="140" cy="530" r="16" fill="#e01b57"/>
    <circle cx="190" cy="530" r="16" fill="none" stroke="#5b6c8f" stroke-width="3"/>
    <circle cx="240" cy="530" r="16" fill="none" stroke="#5b6c8f" stroke-width="3"/>
  </g>
  <text x="90" y="300" fill="#ffffff" font-family="Bricolage Grotesque, Inter, sans-serif" font-size="96" font-weight="800">Çöz-Öğren</text>
  <text x="94" y="360" fill="#8fa2c4" font-family="DM Mono, monospace" font-size="26" letter-spacing="6">ETKİLEŞİMLİ ÇALIŞMA SETİ</text>
</svg>
